<svg width="268" height="34" viewBox="0 0 268 34" fill="none" xmlns="http://www.w3.org/2000/svg">
<path d="M12.44 7.24311V10.934H4.915V25.2623H0V7.24311H12.44ZM19.545 16.2202C19.545 18.0046 19.835 19.3529 20.415 20.2661C21.006 21.1793 21.962 21.6364 23.284 21.6364C24.594 21.6364 25.534 21.1843 26.104 20.2821C26.684 19.3689 26.974 18.0146 26.974 16.2212C26.974 14.4368 26.684 13.0995 26.104 12.2073C25.524 11.316 24.573 10.8699 23.252 10.8699C21.941 10.8699 20.996 11.316 20.416 12.2073C19.836 13.0885 19.546 14.4258 19.546 16.2202H19.545ZM32.001 16.2202C32.001 19.1539 31.228 21.4474 29.681 23.1018C28.134 24.7572 25.981 25.5843 23.219 25.5843C21.489 25.5843 19.964 25.2083 18.643 24.4561C17.322 23.6939 16.307 22.6027 15.598 21.1853C14.888 19.766 14.534 18.1116 14.534 16.2202C14.534 13.2765 15.302 10.988 16.838 9.3546C18.375 7.72122 20.534 6.90503 23.316 6.90503C25.046 6.90503 26.571 7.28112 27.892 8.03329C29.214 8.78546 30.229 9.86471 30.938 11.273C31.647 12.6804 32.001 14.3297 32.001 16.2202ZM43.377 25.5843C37.77 25.5843 34.966 22.5066 34.966 16.3492C34.966 13.2875 35.729 10.95 37.254 9.33859C38.779 7.71622 40.966 6.90503 43.812 6.90503C45.896 6.90503 47.765 7.31312 49.42 8.13031L47.97 11.9332C47.263 11.6451 46.5421 11.3923 45.81 11.176C45.163 10.9748 44.4895 10.8717 43.812 10.8699C41.256 10.8699 39.977 12.6854 39.977 16.3172C39.977 19.842 41.255 21.6034 43.812 21.6034C44.7012 21.6117 45.5867 21.487 46.439 21.2333C47.244 20.9753 48.049 20.5772 48.856 20.0401V24.247C48.061 24.7522 47.255 25.1012 46.439 25.2943C45.633 25.4883 44.612 25.5843 43.377 25.5843Z" fill="#3965AE"/>
<path d="M51.949 14.4638C51.949 10.3269 52.733 7.19013 54.302 5.05163C55.881 2.90214 58.341 1.54382 61.682 0.973693C62.8527 0.769396 64.0296 0.602606 65.211 0.473578C66.403 0.334546 67.649 0.178509 68.949 0.00646973L69.513 4.31046C67.4267 4.54357 65.3426 4.79597 63.261 5.06764C61.832 5.26068 60.779 5.47573 60.103 5.71279C59.426 5.93784 58.867 6.26592 58.427 6.69501C57.997 7.12511 57.664 7.69525 57.427 8.40341C57.191 9.10257 57.036 10.0368 56.961 11.2081H57.202C57.7571 10.34 58.5366 9.63843 59.458 9.17759C60.3917 8.70503 61.4246 8.46192 62.471 8.46842C64.695 8.46842 66.424 9.15058 67.66 10.5149C68.895 11.8692 69.513 13.8137 69.513 16.3492C69.513 19.2719 68.729 21.5444 67.16 23.1668C65.603 24.7792 63.449 25.5844 60.699 25.5844C57.949 25.5844 55.8 24.6012 54.254 22.6347C52.717 20.6582 51.949 17.9336 51.949 14.4638ZM60.989 21.6035C63.32 21.6035 64.485 19.9971 64.485 16.7843C64.485 13.6576 63.433 12.0943 61.327 12.0943C60.747 12.0943 60.167 12.2293 59.587 12.4974C59.01 12.7709 58.4774 13.1297 58.007 13.5616C57.535 13.9917 57.187 14.4258 56.961 14.8669C56.961 17.0474 57.31 18.7188 58.008 19.8791C58.706 21.0293 59.7 21.6035 60.989 21.6035ZM85.014 25.2623L84.063 22.8117H83.934C83.107 23.855 82.253 24.5801 81.372 24.9882C80.502 25.3863 79.363 25.5844 77.956 25.5844C76.227 25.5844 74.862 25.0903 73.863 24.102C72.875 23.1138 72.381 21.7055 72.381 19.8791C72.381 17.9666 73.047 16.5583 74.379 15.6571C75.722 14.7429 77.741 14.2388 80.438 14.1417L83.564 14.0447V13.2545C83.564 11.4281 82.629 10.5149 80.76 10.5149C79.32 10.5149 77.629 10.95 75.684 11.8202L74.057 8.50043C76.13 7.41518 78.429 6.87306 80.953 6.87306C83.37 6.87306 85.223 7.39918 86.512 8.45242C87.801 9.50566 88.446 11.106 88.446 13.2555V25.2623H85.014ZM83.564 16.9134L81.662 16.9784C80.234 17.0214 79.17 17.2785 78.472 17.7516C77.774 18.2247 77.424 18.9448 77.424 19.9121C77.424 21.2974 78.219 21.9905 79.809 21.9905C80.948 21.9905 81.856 21.6625 82.532 21.0073C83.22 20.3522 83.564 19.482 83.564 18.3967V16.9134ZM98.436 7.24314V14.1747H105.3V7.24314H110.215V25.2623H105.3V17.8326H98.436V25.2623H93.522V7.24314H98.436ZM127.182 7.24314H132.596L125.458 15.8821L133.225 25.2623H127.65L120.286 16.1242V25.2623H115.371V7.24314H120.286V15.9952L127.182 7.24314ZM145.696 25.5844C143.58 25.5844 141.921 24.8162 140.717 23.2798H140.46C140.631 24.7842 140.717 25.6544 140.717 25.8904V33.1921H135.803V7.24314H139.799L140.492 9.58068H140.717C141.867 7.79727 143.569 6.90506 145.825 6.90506C147.952 6.90506 149.617 7.72725 150.82 9.37063C152.024 11.015 152.625 13.2985 152.625 16.2202C152.625 18.1437 152.34 19.815 151.771 21.2334C151.213 22.6517 150.412 23.7309 149.37 24.4721C148.328 25.2143 147.104 25.5844 145.696 25.5844ZM144.246 10.838C143.032 10.838 142.146 11.2141 141.588 11.9652C141.029 12.7074 140.739 13.9377 140.717 15.6561V16.1882C140.717 18.1227 141.002 19.509 141.571 20.3462C142.151 21.1844 143.065 21.6035 144.311 21.6035C146.513 21.6035 147.614 19.788 147.614 16.1562C147.614 14.3828 147.34 13.0555 146.792 12.1753C146.255 11.2831 145.406 10.838 144.246 10.838ZM160.601 16.2202C160.601 18.0046 160.891 19.3529 161.471 20.2661C162.062 21.1794 163.018 21.6365 164.339 21.6365C165.65 21.6365 166.59 21.1844 167.159 20.2822C167.739 19.3689 168.029 18.0146 168.029 16.2212C168.029 14.4368 167.739 13.0995 167.159 12.2073C166.579 11.3161 165.629 10.87 164.307 10.87C162.997 10.87 162.051 11.3161 161.471 12.2073C160.891 13.0885 160.601 14.4258 160.601 16.2202ZM173.057 16.2202C173.057 19.1539 172.283 21.4474 170.736 23.1018C169.19 24.7572 167.036 25.5844 164.275 25.5844C162.546 25.5844 161.02 25.2083 159.699 24.4561C158.378 23.6939 157.362 22.6027 156.653 21.1854C155.944 19.766 155.59 18.1117 155.59 16.2202C155.59 13.2765 156.358 10.988 157.894 9.35463C159.43 7.72125 161.589 6.90506 164.372 6.90506C166.101 6.90506 167.627 7.28115 168.948 8.03332C170.269 8.7855 171.284 9.86475 171.993 11.2731C172.702 12.6804 173.057 14.3298 173.057 16.2202ZM191.861 7.24314V10.934H185.964V25.2623H181.049V10.934H175.135V7.24314H191.861ZM202.383 25.5844C196.776 25.5844 193.972 22.5067 193.972 16.3492C193.972 13.2875 194.734 10.95 196.26 9.33862C197.785 7.71625 199.971 6.90506 202.818 6.90506C204.902 6.90506 206.771 7.31316 208.425 8.13035L206.975 11.9332C206.268 11.645 205.548 11.3923 204.816 11.176C204.169 10.9749 203.496 10.8717 202.818 10.87C200.261 10.87 198.983 12.6854 198.983 16.3172C198.983 19.8421 200.261 21.6035 202.818 21.6035C203.763 21.6035 204.639 21.4804 205.444 21.2334C206.301 20.9502 207.115 20.5486 207.861 20.0401V24.2471C207.067 24.7522 206.261 25.1013 205.444 25.2943C204.639 25.4884 203.618 25.5844 202.383 25.5844ZM226.956 7.24314V10.934H221.058V25.2623H216.144V10.934H210.23V7.24314H226.956ZM246.952 11.9652C246.952 12.9325 246.646 13.7596 246.034 14.4478C245.432 15.125 244.541 15.5601 243.359 15.7531V15.8831C244.637 16.0332 245.647 16.4733 246.388 17.2034C247.14 17.9236 247.516 18.8158 247.516 19.8791C247.516 21.6305 246.829 22.9678 245.454 23.892C244.079 24.8062 242.113 25.2623 239.556 25.2623H230.323V7.24314H239.556C242.027 7.24314 243.875 7.64623 245.099 8.45242C246.335 9.2476 246.952 10.4189 246.952 11.9652ZM242.424 19.621C242.424 18.9118 242.151 18.4017 241.603 18.0906C241.055 17.7676 240.233 17.6065 239.137 17.6065H235.238V21.8615H239.234C240.276 21.8615 241.066 21.6685 241.603 21.2814C242.151 20.8843 242.424 20.3312 242.424 19.621ZM241.973 12.3523C241.973 11.2571 241.103 10.7089 239.363 10.7089H235.238V14.2698H238.799C239.841 14.2698 240.63 14.1197 241.168 13.8197C241.705 13.5186 241.973 13.0295 241.973 12.3523ZM255.347 16.2202C255.347 18.0046 255.637 19.3529 256.217 20.2661C256.808 21.1794 257.764 21.6365 259.086 21.6365C260.396 21.6365 261.336 21.1844 261.905 20.2822C262.485 19.3689 262.776 18.0146 262.776 16.2212C262.776 14.4368 262.485 13.0995 261.905 12.2073C261.325 11.3161 260.375 10.87 259.053 10.87C257.743 10.87 256.797 11.3161 256.217 12.2073C255.637 13.0885 255.347 14.4258 255.347 16.2202ZM267.803 16.2202C267.803 19.1539 267.029 21.4474 265.483 23.1018C263.936 24.7572 261.782 25.5844 259.021 25.5844C257.292 25.5844 255.766 25.2083 254.445 24.4561C253.124 23.6939 252.109 22.6027 251.4 21.1854C250.691 19.766 250.336 18.1117 250.336 16.2202C250.336 13.2765 251.104 10.988 252.64 9.35463C254.176 7.72125 256.336 6.90506 259.118 6.90506C260.847 6.90506 262.373 7.28115 263.694 8.03332C265.015 8.7855 266.03 9.86475 266.739 11.2731C267.448 12.6804 267.803 14.3298 267.803 16.2202Z" fill="#CD4158"/>
</svg>
