<svg width="24" height="13" viewBox="0 0 24 13" fill="none" xmlns="http://www.w3.org/2000/svg">
<path fill-rule="evenodd" clip-rule="evenodd" d="M0.271157 0.272733C0.356893 0.18628 0.458743 0.117689 0.570875 0.0708892C0.683007 0.0240891 0.803216 0 0.924619 0C1.04602 0 1.16623 0.0240891 1.27836 0.0708892C1.39049 0.117689 1.49234 0.18628 1.57808 0.272733L12.0002 10.7573L22.4224 0.272733C22.5082 0.18642 22.6101 0.117953 22.7222 0.0712406C22.8343 0.0245285 22.9545 0.000486045 23.0759 0.000486045C23.1972 0.000486045 23.3174 0.0245285 23.4295 0.0712406C23.5416 0.117953 23.6435 0.18642 23.7293 0.272733C23.8151 0.359045 23.8832 0.461513 23.9297 0.574286C23.9761 0.687059 24 0.807929 24 0.929994C24 1.05206 23.9761 1.17293 23.9297 1.2857C23.8832 1.39847 23.8151 1.50094 23.7293 1.58725L12.6537 12.7273C12.568 12.8137 12.4661 12.8823 12.354 12.9291C12.2419 12.9759 12.1216 13 12.0002 13C11.8788 13 11.7586 12.9759 11.6465 12.9291C11.5344 12.8823 11.4325 12.8137 11.3468 12.7273L0.271157 1.58725C0.185204 1.50102 0.11701 1.39858 0.0704803 1.28579C0.0239508 1.17301 0 1.0521 0 0.929994C0 0.807885 0.0239508 0.686977 0.0704803 0.574193C0.11701 0.46141 0.185204 0.358967 0.271157 0.272733Z" fill="#181818"/>
</svg>
