<svg width="60" height="65" viewBox="0 0 60 65" fill="none" xmlns="http://www.w3.org/2000/svg">
<path d="M25.6086 1.13234C28.2236 -0.377446 31.4454 -0.377445 34.0604 1.13234L54.8867 13.1564C57.5018 14.6662 59.1127 17.4564 59.1127 20.4759V44.5241C59.1127 47.5436 57.5017 50.3338 54.8867 51.8436L34.0604 63.8677C31.4454 65.3774 28.2236 65.3774 25.6086 63.8677L4.78227 51.8436C2.16725 50.3338 0.556335 47.5436 0.556335 44.5241V20.4759C0.556335 17.4564 2.16725 14.6662 4.78227 13.1564L25.6086 1.13234Z" fill="#2E4ECE"/>
<path d="M32.42 41.3072L34.9794 43.8672L37.5388 41.3072M36.4768 15.9368V23.2435C36.4768 23.5436 36.7201 23.787 37.0202 23.787H42.8158M22.8935 32.2406H37.3824M22.8935 28.5153H30.1379H37.3824M22.8935 36.486H31.0435M17.4601 18.9562C17.4601 16.9552 19.0818 15.3331 21.0823 15.3331H35.5713C39.5722 15.3331 42.8157 18.5773 42.8157 22.5792V45.5253C42.8157 47.5264 41.1941 49.1484 39.1935 49.1484H21.0823C19.0818 49.1484 17.4601 47.5264 17.4601 45.5253V18.9562Z" stroke="white" stroke-width="3" stroke-linecap="round"/>
</svg>
