<svg width="59" height="65" viewBox="0 0 59 65" fill="none" xmlns="http://www.w3.org/2000/svg">
<path d="M25.0522 1.13234C27.6672 -0.377446 30.8891 -0.377445 33.5041 1.13234L54.3304 13.1564C56.9454 14.6662 58.5563 17.4564 58.5563 20.4759V44.5241C58.5563 47.5436 56.9454 50.3338 54.3304 51.8436L33.5041 63.8677C30.8891 65.3774 27.6672 65.3774 25.0522 63.8677L4.22594 51.8436C1.61092 50.3338 0 47.5436 0 44.5241V20.4759C0 17.4564 1.61092 14.6662 4.22594 13.1564L25.0522 1.13234Z" fill="#2E4ECE"/>
<path d="M35.8941 22.0962L29.1326 32.2408L19.8355 35.6223M12.6778 19.7871L13.75 25.1386L19.1003 24.0661M13.8086 25.0948C16.5008 19.3286 22.3503 15.3331 29.1327 15.3331C38.4685 15.3331 46.0365 22.9029 46.0365 32.2408C46.0365 41.5785 38.4685 49.1484 29.1327 49.1484C22.79 49.1484 17.2631 45.6541 14.3713 40.4851" stroke="white" stroke-width="3" stroke-linecap="round"/>
</svg>
