<svg width="59" height="65" viewBox="0 0 59 65" fill="none" xmlns="http://www.w3.org/2000/svg">
<path d="M25.0522 1.13234C27.6672 -0.377446 30.8891 -0.377445 33.5041 1.13234L54.3304 13.1564C56.9454 14.6662 58.5563 17.4564 58.5563 20.4759V44.5241C58.5563 47.5436 56.9454 50.3338 54.3304 51.8436L33.5041 63.8677C30.8891 65.3774 27.6672 65.3774 25.0522 63.8677L4.22594 51.8436C1.61092 50.3338 0 47.5436 0 44.5241V20.4759C0 17.4564 1.61092 14.6662 4.22594 13.1564L25.0522 1.13234Z" fill="#2E4ECE"/>
<path d="M43.6832 22.7411L34.2244 32.2021M43.6832 32.2021L34.2244 22.7411M21.0904 15.4842L18.0589 17.2349C15.2915 18.833 14.3861 22.3989 16.0407 25.1333C17.8467 28.1178 20.1292 31.9249 21.9277 35.0406C23.8279 38.3326 26.3114 42.7995 28.199 46.2215C29.7396 49.014 33.2719 50.0049 36.0333 48.4102L39.0801 46.6507C39.5327 46.3895 39.6876 45.8109 39.4263 45.3583L36.0889 39.5765C35.8279 39.1239 35.2494 38.9689 34.7968 39.2301L31.9235 40.8895C31.4954 41.1366 30.9505 41.0136 30.6743 40.6034C29.7254 39.1935 27.607 36.0033 26.1928 33.5533C24.7634 31.0768 22.9186 27.3906 22.1285 25.7906C21.9086 25.3455 22.0745 24.81 22.5044 24.5618L25.3737 22.9048C25.8261 22.6436 25.9811 22.065 25.7199 21.6124L22.3825 15.8305C22.1213 15.378 21.5428 15.223 21.0904 15.4842Z" stroke="white" stroke-width="3" stroke-linecap="round"/>
</svg>
